<?xml version="1.0" encoding="UTF-8" standalone="no"?>
<svg width="14px" height="12px" viewBox="0 0 14 12" version="1.1" xmlns="http://www.w3.org/2000/svg" xmlns:xlink="http://www.w3.org/1999/xlink">
    <!-- Generator: Sketch 3.6.1 (26313) - http://www.bohemiancoding.com/sketch -->
    <title>Menu Icon</title>
    <desc>Created with Sketch.</desc>
    <defs></defs>
    <g id="Home-Page" stroke="none" stroke-width="1" fill="none" fill-rule="evenodd">
        <g id="Mobile-Portrait" transform="translate(-20.000000, -20.000000)" fill="#F5EDF2">
            <g id="Menu-Icon" transform="translate(20.000000, 20.000000)">
                <path d="M1,1.5 L13,1.5 L13.5,1.5 L13.5,0.5 L13,0.5 L1,0.5 L0.5,0.5 L0.5,1.5 L1,1.5 Z M1,6.5 L13,6.5 L13.5,6.5 L13.5,5.5 L13,5.5 L1,5.5 L0.5,5.5 L0.5,6.5 L1,6.5 Z M1,11.5 L13,11.5 L13.5,11.5 L13.5,10.5 L13,10.5 L1,10.5 L0.5,10.5 L0.5,11.5 L1,11.5 Z" id="Combined-Shape"></path>
            </g>
        </g>
    </g>
</svg>